HIERARCHY
ROOT Hips
{
	OFFSET 0.00000 0.00000 0.00000
	CHANNELS 6 Xposition Yposition Zposition Zrotation Yrotation Xrotation 
	JOINT LHipJoint
	{
		OFFSET 0 0 0
		CHANNELS 3 Zrotation Yrotation Xrotation
		JOINT LeftUpLeg
		{
			OFFSET 1.26600 -1.82114 0.91038
			CHANNELS 3 Zrotation Yrotation Xrotation
			JOINT LeftLeg
			{
				OFFSET 2.50076 -6.87080 0.00000
				CHANNELS 3 Zrotation Yrotation Xrotation
				JOINT LeftFoot
				{
					OFFSET 2.57364 -7.07102 0.00000
					CHANNELS 3 Zrotation Yrotation Xrotation
					JOINT LeftToeBase
					{
						OFFSET 0.13572 -0.37290 1.97004
						CHANNELS 3 Zrotation Yrotation Xrotation
						End Site
						{
							OFFSET 0.00000 -0.00000 1.01383
						}
					}
				}
			}
		}
	}
	JOINT RHipJoint
	{
		OFFSET 0 0 0
		CHANNELS 3 Zrotation Yrotation Xrotation
		JOINT RightUpLeg
		{
			OFFSET -1.20803 -1.82114 0.91038
			CHANNELS 3 Zrotation Yrotation Xrotation
			JOINT RightLeg
			{
				OFFSET -2.54916 -7.00377 0.00000
				CHANNELS 3 Zrotation Yrotation Xrotation
				JOINT RightFoot
				{
					OFFSET -2.56374 -7.04382 0.00000
					CHANNELS 3 Zrotation Yrotation Xrotation
					JOINT RightToeBase
					{
						OFFSET -0.23520 -0.64621 2.09921
						CHANNELS 3 Zrotation Yrotation Xrotation
						End Site
						{
							OFFSET -0.00000 -0.00000 1.10065
						}
					}
				}
			}
		}
	}
	JOINT LowerBack
	{
		OFFSET 0 0 0
		CHANNELS 3 Zrotation Yrotation Xrotation
		JOINT Spine
		{
			OFFSET 0.05492 2.10797 -0.12074
			CHANNELS 3 Zrotation Yrotation Xrotation
			JOINT Spine1
			{
				OFFSET 0.04577 2.11592 -0.04483
				CHANNELS 3 Zrotation Yrotation Xrotation
				JOINT Neck
				{
					OFFSET 0 0 0
					CHANNELS 3 Zrotation Yrotation Xrotation
					JOINT Neck1
					{
						OFFSET -0.10759 1.80167 0.15770
						CHANNELS 3 Zrotation Yrotation Xrotation
						JOINT Head
						{
							OFFSET 0.09237 1.77509 -0.40848
							CHANNELS 3 Zrotation Yrotation Xrotation
							End Site
							{
								OFFSET 0.03805 1.84093 -0.15754
							}
						}
					}
				}
				JOINT LeftShoulder
				{
					OFFSET 0 0 0
					CHANNELS 3 Zrotation Yrotation Xrotation
					JOINT LeftArm
					{
						OFFSET 3.42372 1.09575 -0.28209
						CHANNELS 3 Zrotation Yrotation Xrotation
						JOINT LeftForeArm
						{
							OFFSET 4.95681 -0.00000 0.00000
							CHANNELS 3 Zrotation Yrotation Xrotation
							JOINT LeftHand
							{
								OFFSET 3.40915 -0.00000 0.00000
								CHANNELS 3 Zrotation Yrotation Xrotation
								JOINT LeftFingerBase
								{
									OFFSET 0 0 0
									CHANNELS 3 Zrotation Yrotation Xrotation
									JOINT LeftHandIndex1
									{
										OFFSET 0.61640 -0.00000 0.00000
										CHANNELS 3 Zrotation Yrotation Xrotation
										End Site
										{
											OFFSET 0.49696 -0.00000 0.00000
										}
									}
								}
								JOINT LThumb
								{
									OFFSET 0 0 0
									CHANNELS 3 Zrotation Yrotation Xrotation
									End Site
									{
										OFFSET 0.50455 -0.00000 0.50455
									}
								}
							}
						}
					}
				}
				JOINT RightShoulder
				{
					OFFSET 0 0 0
					CHANNELS 3 Zrotation Yrotation Xrotation
					JOINT RightArm
					{
						OFFSET -3.24731 1.15872 -0.32221
						CHANNELS 3 Zrotation Yrotation Xrotation
						JOINT RightForeArm
						{
							OFFSET -5.35200 -0.00000 0.00000
							CHANNELS 3 Zrotation Yrotation Xrotation
							JOINT RightHand
							{
								OFFSET -3.43721 -0.00000 -0.00000
								CHANNELS 3 Zrotation Yrotation Xrotation
								JOINT RightFingerBase
								{
									OFFSET 0 0 0
									CHANNELS 3 Zrotation Yrotation Xrotation
									JOINT RightHandIndex1
									{
										OFFSET -0.72009 -0.00000 0.00000
										CHANNELS 3 Zrotation Yrotation Xrotation
										End Site
										{
											OFFSET -0.58056 -0.00000 0.00000
										}
									}
								}
								JOINT RThumb
								{
									OFFSET 0 0 0
									CHANNELS 3 Zrotation Yrotation Xrotation
									End Site
									{
										OFFSET -0.58942 -0.00000 0.58942
									}
								}
							}
						}
					}
				}
			}
		}
	}
}
MOTION
Frames: 10
Frame Time: .0083333
-11.6221 17.0508 -21.3788 0 0 0 0 0 0 -21 0 0 0 0 0 0 0 0 0 0 0 0 0 0 21 0 0 0 0 0 0 0 0 0 0 0 0 0 0 0 0 0 0 0 0 0 0 -16 0 0 21 0 0 11 0 0 0 -8 0 0 0 0 0 0 0 0 0 0 0 0 0 0 0 0 0 0 0 0 8 0 0 0 0 0 0 0 0 0 0 0 0 0 0 0 0 0
-11.6221 17.0508 -21.3788 -76.0756 78.8103 -72.5899 0.0000 0.0000 0.0000 -5.7024 -7.2174 -36.4190 5.2069 13.6131 41.7091 0.5419 -8.8400 -13.6107 0.0011 -0.2131 -0.5854 0.0000 0.0000 0.0000 34.8746 -3.0023 8.3914 -0.1139 -2.1759 5.9920 -0.6091 5.4630 -13.9026 -0.9885 -6.3280 17.7391 9.8256 0.9920 3.1359 5.1812 1.7622 2.1616 -0.1674 1.0387 0.6068 -8.2991 -3.1070 -14.2927 3.0456 -1.9312 35.1124 2.5102 -1.0985 14.6725 0.0000 0.0000 0.0000 -90.8101 7.7738 13.3769 14.5684 -23.5414 -3.0515 -0.0000 -0.0000 0.5060 18.0841 21.5238 6.8317 -7.1250 0.0000 -0.0000 -10.9085 52.1872 -1.9491 0.0000 0.0000 0.0000 84.0232 2.4072 20.1859 -13.5205 22.0450 -2.6454 0.0000 -0.0000 -9.6847 -22.3236 11.6961 -4.7583 7.1250 -0.0000 -0.0000 3.3823 -17.3788 2.2216
-11.5521 17.0442 -21.3907 -76.1181 78.9078 -72.4425 0.0000 0.0000 0.0000 -5.8664 -7.4058 -36.4369 4.7211 13.0626 39.6034 0.5638 -8.6385 -13.7995 0.0103 0.6546 1.7990 0.0000 0.0000 0.0000 34.6771 -3.0689 8.6555 -0.0965 -2.0030 5.5138 -0.5847 5.4425 -13.6223 -1.1257 -6.7394 18.9455 10.0521 1.1013 2.9632 4.9509 1.8802 2.1360 -0.5272 1.0999 0.7028 -9.1128 -3.3883 -14.3072 4.0333 -2.4778 34.9238 2.9684 -1.3099 14.6611 -0.0000 -0.0000 0.0000 -90.5098 7.8003 13.4325 14.2681 -23.1167 -2.9326 -0.0000 -0.0000 0.6223 18.0712 21.5404 6.8316 -7.1250 0.0000 -0.0000 -10.9277 52.2018 -1.9565 -0.0000 -0.0000 0.0000 84.2897 2.4100 20.4590 -13.5880 22.1426 -2.6708 0.0000 -0.0000 -10.8780 -22.7149 11.8074 -4.8959 7.1250 -0.0000 -0.0000 3.1137 -17.2226 2.0552
-11.4804 17.0396 -21.3952 -76.4932 79.0217 -72.6050 0.0000 0.0000 0.0000 -6.0073 -7.6118 -36.4853 4.2714 12.5131 37.5721 0.5928 -8.3627 -14.0523 0.0097 0.6366 1.7495 0.0000 0.0000 0.0000 34.5557 -3.3369 9.2149 -0.0604 -1.5860 4.3628 -0.5332 5.3574 -13.0103 -1.2286 -7.0297 19.8033 10.0665 1.1241 2.8077 4.8663 1.8887 2.0791 -0.6197 1.1023 0.7352 -9.3491 -3.4228 -14.3032 4.3052 -2.5632 34.8210 3.1058 -1.3419 14.6288 0.0000 0.0000 0.0000 -90.4118 7.9823 14.0679 13.9998 -22.7344 -2.8280 -0.0000 -0.0000 0.2136 18.7157 21.7187 7.1458 -7.1250 0.0000 -0.0000 -10.3563 52.4958 -1.9274 0.0000 0.0000 0.0000 84.1179 2.2796 21.3223 -13.7462 22.3707 -2.7308 0.0000 -0.0000 -12.3298 -23.4395 11.5434 -4.9585 7.1250 -0.0000 -0.0000 2.5956 -17.4377 1.7002
-11.4106 17.0427 -21.3843 -77.7321 78.7641 -73.9002 0.0000 0.0000 0.0000 -5.6058 -7.8324 -36.2178 3.8533 11.9626 35.5998 0.5721 -8.5577 -13.8717 0.0023 0.3106 0.8535 0.0000 0.0000 0.0000 34.9287 -4.2203 10.9326 -0.0061 -0.5043 1.3858 -0.4348 4.7524 -11.7383 -1.1160 -6.7111 18.8622 10.0377 0.8901 2.9652 5.2885 1.6154 2.1519 -0.1645 0.9728 0.6849 -9.6324 -3.3147 -14.6063 3.8861 -2.1428 34.8369 3.0489 -1.2599 14.6740 0.0000 -0.0000 0.0000 -91.1579 8.0294 13.4526 13.7214 -22.3350 -2.7213 -0.0000 -0.0000 0.3758 19.2994 21.7553 7.3953 -7.1250 0.0000 -0.0000 -9.7882 52.6372 -1.8540 0.0000 -0.0000 0.0000 83.4066 2.5487 21.1176 -13.6494 22.2313 -2.6940 0.0000 -0.0000 -10.0363 -21.6034 11.5929 -4.5499 7.1250 -0.0000 -0.0000 3.8823 -17.5548 2.5364
-11.3402 17.0559 -21.3825 -78.1434 78.9350 -74.2691 0.0000 0.0000 0.0000 -5.7787 -8.0781 -35.9976 3.4505 11.3908 33.6095 0.5480 -8.5626 -13.6139 0.0002 -0.0886 -0.2434 0.0000 0.0000 0.0000 34.7814 -4.7012 11.8357 0.0000 0.0000 -0.0000 -0.4092 4.3011 -11.3784 -0.8920 -6.0198 16.8419 10.0790 1.2379 3.0067 4.9226 2.0736 2.0787 -0.5768 1.1923 0.6366 -8.7004 -3.6234 -14.3193 3.6226 -2.8237 34.6538 2.6575 -1.4597 14.5525 0.0000 0.0000 0.0000 -90.3834 7.9117 13.5836 13.3366 -21.7784 -2.5768 -0.0000 -0.0000 1.2561 19.2360 21.6763 7.3441 -7.1250 0.0000 -0.0000 -9.8219 52.5452 -1.8382 0.0000 0.0000 0.0000 84.1466 2.3142 20.0949 -13.7878 22.4305 -2.7466 0.0000 -0.0000 -10.6255 -21.5113 11.8240 -4.6173 7.1250 -0.0000 -0.0000 3.9545 -17.3169 2.6044
-11.2593 17.0300 -21.3909 -77.2561 79.0733 -73.3578 0.0000 0.0000 0.0000 -6.0586 -8.1050 -35.9001 3.0941 10.8459 31.7620 0.5573 -8.0820 -13.6162 0.0066 -0.5255 -1.4439 0.0000 0.0000 0.0000 34.4233 -4.5853 12.0271 0.0000 0.0000 -0.0000 -0.3878 4.9640 -11.1097 -1.4117 -7.5148 21.2499 9.3046 0.7246 2.9049 5.5414 1.3758 2.1468 0.5031 0.8455 0.6684 -9.7986 -3.0736 -14.4811 3.3790 -1.5631 34.7395 2.9585 -1.1009 14.5526 -0.0000 -0.0000 0.0000 -92.2875 7.9335 9.9236 13.0284 -21.3288 -2.4636 -0.0000 -0.0000 3.1802 19.3731 21.5703 7.3660 -7.1250 0.0000 -0.0000 -9.6456 52.4616 -1.7849 -0.0000 -0.0000 0.0000 82.7387 2.4500 22.7637 -13.8822 22.5660 -2.7827 0.0000 -0.0000 -12.2966 -22.3574 11.3202 -4.6158 7.1250 -0.0000 -0.0000 3.3442 -17.7787 2.1671
-11.1705 17.0415 -21.3949 -77.2912 78.9660 -73.5372 0.0000 0.0000 0.0000 -5.9582 -8.2014 -35.4852 2.7727 10.3176 30.0115 0.5645 -7.9221 -13.6656 0.0102 -0.6517 -1.7908 0.0000 0.0000 0.0000 34.5289 -4.8124 12.5620 0.0000 -0.0000 0.0000 -0.4198 4.6871 -11.5338 -0.9203 -6.1121 17.1100 9.6858 1.0426 2.9063 5.2873 1.7917 2.2300 0.0263 1.0616 0.8011 -9.5365 -3.3889 -14.5177 3.6020 -2.1843 34.7815 2.9048 -1.3009 14.6287 0.0000 0.0000 0.0000 -91.8917 7.7605 9.6830 12.6244 -20.7344 -2.3186 -0.0000 -0.0000 4.6342 19.8241 21.3021 7.4612 -7.1250 0.0000 -0.0000 -9.0983 52.2675 -1.6388 0.0000 0.0000 0.0000 83.3154 2.3925 21.7444 -13.8826 22.5667 -2.7829 0.0000 -0.0000 -12.4729 -22.8400 11.3514 -4.7390 7.1250 -0.0000 -0.0000 3.0069 -17.7011 1.9530
-11.0847 17.0560 -21.4003 -77.8946 79.3081 -74.1596 0.0000 0.0000 0.0000 -6.1128 -8.8291 -35.1867 2.5216 9.8770 28.5793 0.5653 -8.1838 -13.7231 0.0009 -0.1932 -0.5308 0.0000 0.0000 0.0000 34.1981 -5.1272 12.8241 0.0000 0.0000 -0.0000 -0.4506 4.3846 -11.9405 -0.6266 -5.0652 14.0946 9.5434 1.1002 2.8041 5.0909 1.8372 2.2682 -0.0967 1.0841 0.9036 -9.6019 -3.5606 -14.5224 3.7822 -2.4863 34.7565 2.9403 -1.4144 14.6484 0.0000 0.0000 0.0000 -91.6604 7.8625 10.3574 12.4103 -20.4171 -2.2434 -0.0000 -0.0000 4.4183 19.8520 21.0689 7.3953 -7.1250 0.0000 -0.0000 -8.9880 52.0332 -1.5668 0.0000 0.0000 0.0000 83.7144 2.5354 20.6226 -13.7304 22.3479 -2.7247 0.0000 -0.0000 -11.6913 -23.0137 11.4980 -4.8396 7.1250 -0.0000 -0.0000 2.8914 -17.5271 1.8888
-11.0022 17.0534 -21.3968 -78.1668 79.0433 -74.4065 0.0000 0.0000 0.0000 -5.5898 -9.1687 -35.1256 2.3085 9.4812 27.3124 0.5533 -8.5352 -13.6645 0.0042 0.4187 1.1505 0.0000 0.0000 0.0000 34.4456 -5.1944 13.0785 0.0000 0.0000 -0.0000 -0.4645 4.4048 -12.1250 -0.6790 -5.2687 14.6764 9.8307 1.2688 2.8093 5.0377 2.0729 2.2094 -0.3127 1.2023 0.8698 -9.3929 -3.6552 -14.3744 3.8908 -2.7349 34.7837 2.9099 -1.4754 14.6437 -0.0000 -0.0000 0.0000 -91.0528 8.0523 12.1928 12.2480 -20.1755 -2.1871 -0.0000 -0.0000 2.8675 19.6867 21.6185 7.5094 -7.1250 0.0000 -0.0000 -9.3501 52.5669 -1.7537 -0.0000 -0.0000 0.0000 84.0902 2.5546 19.3073 -13.5760 22.1253 -2.6663 0.0000 -0.0000 -11.0355 -23.2070 11.8054 -5.0129 7.1250 -0.0000 -0.0000 2.7702 -17.1775 1.8306
